PathFileType	4	(X/Y/Z)	c:/Users/goper/Files/vsCode/490R/osim_files/C08/C08_Slow_01.trc
DataRate	CameraRate	NumFrames	NumMarkers	Units                	OrigDataRate	OrigDataStartFrame	OrigNumFrames
250.00	250.00	6	36	mm	250.0	2453	2803
                Frame#	Time	LPSIS			LASIS			LTH1			LTH2			LTH3			LTH4			LLFE			LMFE			LSH1			LSH2			LSH3			LSH4			LLMAL			LMMAL			LCAL			LMTP5			LTOE			LMTP1			RPSIS			RASIS			RTH1			RTH2			RTH3			RTH4			RLFE			RMFE			RSH1			RSH2			RSH3			RSH4			RLMAL			RMMAL			RCAL			RMTP1			RTOE			RMTP5		
		X1	Y1	Z1	X2	Y2	Z2	X3	Y3	Z3	X4	Y4	Z4	X5	Y5	Z5	X6	Y6	Z6	X7	Y7	Z7	X8	Y8	Z8	X9	Y9	Z9	X10	Y10	Z10	X11	Y11	Z11	X12	Y12	Z12	X13	Y13	Z13	X14	Y14	Z14	X15	Y15	Z15	X16	Y16	Z16	X17	Y17	Z17	X18	Y18	Z18	X19	Y19	Z19	X20	Y20	Z20	X21	Y21	Z21	X22	Y22	Z22	X23	Y23	Z23	X24	Y24	Z24	X25	Y25	Z25	X26	Y26	Z26	X27	Y27	Z27	X28	Y28	Z28	X29	Y29	Z29	X30	Y30	Z30	X31	Y31	Z31	X32	Y32	Z32	X33	Y33	Z33	X34	Y34	Z34	X35	Y35	Z35	X36	Y36	Z36

2453	9.80800	-2519.47632	1044.70288	108.77468	-2729.34131	1018.44055	-30.53315	-2662.50562	728.77393	284.57248	-2681.82690	653.58112	280.73163	-2694.28760	579.11548	277.09058	-2759.42896	672.56927	279.80902	-2696.88208	532.59460	273.92371	-2743.33984	516.60181	151.03191	-2601.80786	486.08002	273.34949	-2572.67749	450.17456	273.89929	-2643.07178	441.81491	282.75171	-2607.74756	412.78497	279.37628	-2382.49048	255.54254	210.22562	-2418.48486	233.05826	130.57738	-2337.40796	286.01944	142.51192	-2397.21655	130.00029	253.99213	-2462.57471	94.43941	209.70784	-2432.90015	99.32558	151.39780	-2524.73291	1044.57434	49.51018	-2722.56738	1006.72302	210.53326	-2692.97412	751.71906	-87.86502	-2702.65576	674.68756	-67.58041	-2708.98193	595.96002	-57.94136	-2773.60889	688.83539	-40.83562	-2721.56885	525.50104	-38.04999	-2712.49756	521.46460	86.75953	-2668.79443	441.44073	-56.54794	-2673.72363	397.38303	-61.02243	-2729.39355	440.94571	-44.08926	-2727.60181	396.67889	-49.12216	-2653.98755	100.54836	6.20927	-2684.83618	106.28266	95.56049	-2595.48584	79.38949	75.88094	-2812.40283	46.93375	83.50477	-2829.32593	64.76720	30.44720	-2777.72852	47.11523	-29.67464
2454	9.81200	-2523.49438	1045.08789	108.77071	-2732.82812	1018.83807	-31.26997	-2668.34058	729.67389	284.41373	-2688.41797	654.60822	280.58569	-2701.03467	580.25867	276.88000	-2765.79761	674.21674	279.69461	-2704.24805	533.70203	273.80478	-2750.94678	518.08569	150.98360	-2609.67212	487.11957	273.02267	-2580.53491	450.93372	273.59641	-2650.98608	443.05103	282.66989	-2615.70215	413.82114	279.86371	-2391.55103	254.92410	210.10544	-2425.57349	233.32860	129.43242	-2346.23975	284.88611	142.28957	-2407.22412	129.64911	254.23859	-2473.00806	94.52981	210.13843	-2444.48267	99.51768	152.36278	-2528.07349	1045.16296	49.26833	-2726.46851	1007.49323	209.93881	-2696.11792	751.91199	-87.84033	-2703.02515	673.69690	-67.57108	-2710.57495	596.10498	-58.07478	-2775.75903	688.63403	-41.03626	-2722.81201	525.55469	-38.18992	-2713.82471	521.59326	86.61820	-2669.81323	441.49036	-57.07919	-2674.51782	397.53543	-61.07466	-2730.33472	440.98486	-44.21840	-2728.46191	396.74045	-49.20415	-2654.11084	100.72727	6.23918	-2686.73828	107.32373	96.88496	-2595.57007	79.54359	75.90930	-2812.44946	46.88376	83.51083	-2829.41553	64.72955	30.44531	-2777.73218	47.09658	-29.68394
2455	9.81600	-2527.13672	1045.59167	108.52315	-2736.28711	1019.22137	-32.00321	-2674.30884	730.44641	284.41092	-2694.87573	655.70422	280.49069	-2708.26270	581.43750	276.89322	-2772.14404	675.85675	279.54477	-2711.74536	534.65448	273.90485	-2758.36890	519.54877	150.88295	-2617.31860	488.02133	272.82120	-2588.38062	451.62717	273.24866	-2658.90479	444.17859	282.60251	-2623.62305	414.65784	279.14096	-2400.72852	254.14696	210.03949	-2437.95947	231.63741	130.93651	-2355.19019	283.51346	142.17393	-2417.39038	129.09659	254.50233	-2483.72705	94.58183	210.59073	-2454.06128	98.84902	152.33504	-2531.64868	1045.70276	49.07331	-2730.35913	1008.32062	209.34677	-2698.83057	752.28491	-87.85419	-2705.19043	673.94019	-67.77377	-2712.19385	596.17468	-58.12910	-2777.90771	688.44263	-41.25968	-2724.12671	525.64551	-38.32187	-2715.00391	521.66876	86.55106	-2670.65991	441.66812	-57.14497	-2675.78662	397.50522	-61.02192	-2731.28662	441.02863	-44.31715	-2729.26367	396.79605	-49.31994	-2654.27100	100.94200	6.23716	-2686.82910	107.43414	96.88924	-2595.95581	79.65175	76.09431	-2812.46069	46.87284	83.48490	-2829.49585	64.70562	30.43155	-2777.74683	47.08126	-29.69488
2456	9.82000	-2531.91260	1045.76428	108.27546	-2739.35767	1019.49774	-32.70729	-2680.39917	731.23962	284.34912	-2701.36230	656.79449	280.40604	-2714.98438	582.57013	276.75400	-2778.46948	677.49652	279.32117	-2718.89429	536.02863	273.57462	-2765.85327	521.10034	150.76805	-2624.92896	488.78253	272.52197	-2596.28833	452.15585	273.04688	-2666.74219	445.27090	282.53589	-2631.71875	415.42493	279.04037	-2410.06812	253.13847	210.00667	-2446.83008	231.00816	130.69180	-2364.11914	281.95923	142.05669	-2428.32568	128.31235	254.68784	-2494.63330	94.46222	210.95425	-2466.00879	98.57178	153.03812	-2534.73462	1046.38708	48.66219	-2734.21973	1009.14960	208.72165	-2701.21265	752.46948	-88.09006	-2708.75488	675.12610	-68.13857	-2713.76709	596.32184	-58.25953	-2780.03955	688.22119	-41.45319	-2725.29395	525.69556	-38.41701	-2716.32153	521.81525	86.38234	-2671.44214	442.04288	-56.82875	-2676.53809	397.66840	-61.08512	-2732.22754	441.10425	-44.44835	-2730.05176	396.86285	-49.43049	-2654.41968	101.13981	6.25582	-2686.93384	107.55304	96.90280	-2595.52539	79.91182	75.84519	-2812.50220	46.84612	83.51598	-2829.58667	64.69568	30.42225	-2777.75171	47.05996	-29.70312
2457	9.82400	-2535.76001	1046.26355	108.03686	-2742.75732	1019.85718	-33.35998	-2686.62866	732.04089	284.25037	-2707.76855	657.81360	280.28546	-2721.95215	583.73724	276.77765	-2784.77881	679.12195	279.07761	-2726.15015	537.20190	273.41928	-2773.19287	522.65869	150.59593	-2632.41235	489.38690	272.15897	-2604.09399	452.64310	272.77936	-2674.54639	446.23669	282.40799	-2642.29126	418.14783	282.63135	-2419.29175	251.96558	209.90703	-2456.44043	230.09245	130.73680	-2373.06421	280.20312	142.02443	-2439.01685	127.44429	254.93677	-2505.73999	94.27682	211.31871	-2475.90063	97.66592	152.96126	-2537.95630	1046.67883	48.27064	-2738.07764	1009.98291	208.05476	-2703.70166	752.66614	-88.30200	-2709.13281	674.21368	-68.12443	-2715.29224	596.45819	-58.38733	-2782.12451	687.91931	-41.68396	-2726.46362	525.73730	-38.52919	-2717.56689	521.90436	86.30118	-2672.20728	442.20233	-56.90962	-2677.26245	397.83224	-61.16524	-2733.08521	441.11304	-44.58470	-2730.81714	396.91437	-49.48195	-2654.56250	101.32680	6.25317	-2687.05273	107.67961	96.91611	-2595.60669	80.08607	75.85102	-2812.51636	46.54012	84.23366	-2829.63818	64.63993	30.37967	-2777.77173	47.05861	-29.72881
2458	9.82800	-2538.91138	1046.89514	107.67389	-2746.16528	1020.18982	-33.99146	-2692.74170	732.91589	284.13544	-2714.23120	658.86554	280.24759	-2728.85620	584.89221	276.75867	-2791.06226	680.77472	278.77979	-2733.62598	538.16992	273.50427	-2780.46436	524.24371	150.40433	-2639.98315	489.94293	271.93936	-2611.92871	452.99451	272.56979	-2682.27368	447.10315	282.15527	-2647.96143	416.97449	279.44821	-2428.86792	250.57144	209.96651	-2466.08936	229.05301	130.82472	-2382.08398	278.24951	142.01599	-2449.83716	126.38440	255.15822	-2516.89526	93.87540	211.58929	-2487.10620	96.92622	153.20692	-2542.33643	1047.10291	48.20022	-2741.93848	1010.83722	207.39233	-2706.13794	752.90118	-88.47913	-2712.72363	675.35895	-68.56709	-2716.83960	596.59534	-58.53673	-2784.14795	687.71411	-41.85505	-2727.66821	525.77521	-38.61964	-2719.09229	522.07178	86.30591	-2672.83716	441.98776	-57.33383	-2677.96704	397.98669	-61.21249	-2733.99219	441.16385	-44.67799	-2731.52466	396.92065	-49.58187	-2654.72534	101.49746	6.27684	-2687.16455	107.78858	96.92113	-2595.69116	80.23499	75.88831	-2812.49316	46.49520	84.18286	-2829.69214	64.56038	30.36987	-2777.78882	47.00956	-29.72513
